<?xml version="1.0" standalone="no"?>
<!DOCTYPE svg PUBLIC "-//W3C//DTD SVG 20010904//EN"
 "http://www.w3.org/TR/2001/REC-SVG-20010904/DTD/svg10.dtd">
<svg version="1.0" xmlns="http://www.w3.org/2000/svg"
 width="500.000000pt" height="500.000000pt" viewBox="0 0 500.000000 500.000000"
 preserveAspectRatio="xMidYMid meet">
<metadata>
Created by potrace 1.11, written by Peter Selinger 2001-2013
</metadata>
<g transform="translate(0.000000,500.000000) scale(0.100000,-0.100000)"
fill="#000000" stroke="none">
<path d="M279 4986 c-103 -28 -199 -111 -247 -214 l-27 -57 0 -2210 0 -2210
24 -60 c33 -82 124 -173 206 -206 l60 -24 2205 0 2205 0 60 24 c82 33 173 124
206 206 l24 60 0 2210 0 2210 -32 66 c-39 80 -111 150 -191 187 l-57 27 -2195
2 c-1718 1 -2205 -1 -2241 -11z m2275 -1303 l47 -108 619 0 619 0 30 70 c33
78 36 79 115 46 39 -17 46 -24 41 -40 -3 -11 -181 -437 -395 -947 l-389 -928
-24 55 c-13 30 -178 402 -366 827 -189 424 -346 772 -350 772 -3 0 -166 -373
-361 -830 -195 -456 -357 -830 -360 -830 -4 0 -781 1815 -806 1882 -5 14 6 23
52 43 32 14 63 24 68 21 6 -2 162 -357 346 -790 184 -432 337 -786 340 -786 3
0 165 373 360 829 195 456 358 827 361 825 3 -2 27 -52 53 -111z m-1716 -1525
l-3 -73 -53 -6 c-29 -4 -55 -9 -58 -12 -8 -8 138 -138 251 -222 345 -257 705
-408 1150 -482 89 -14 163 -18 385 -17 251 0 287 3 420 27 498 89 947 311
1298 640 29 27 51 51 48 54 -2 3 -29 8 -58 12 l-53 6 -3 64 c-2 35 1 68 7 74
15 15 142 -11 210 -43 108 -51 179 -135 195 -232 l7 -38 -76 0 c-61 0 -75 3
-75 16 0 8 -5 24 -10 35 -10 17 -20 11 -113 -73 -617 -554 -1445 -796 -2257
-657 -508 87 -971 311 -1360 660 -91 81 -100 87 -110 70 -5 -11 -10 -27 -10
-35 0 -13 -14 -16 -75 -16 l-76 0 7 38 c17 93 85 177 185 228 52 26 149 52
202 53 l28 1 -3 -72z"/>
</g>
</svg>
