<?xml version="1.0" standalone="no"?>
<!DOCTYPE svg PUBLIC "-//W3C//DTD SVG 20010904//EN"
 "http://www.w3.org/TR/2001/REC-SVG-20010904/DTD/svg10.dtd">
<svg version="1.0" xmlns="http://www.w3.org/2000/svg"
 width="480.000000pt" height="480.000000pt" viewBox="0 0 480.000000 480.000000"
 preserveAspectRatio="xMidYMid meet">
<metadata>
Created by potrace 1.11, written by Peter Selinger 2001-2013
</metadata>
<g transform="translate(0.000000,480.000000) scale(0.100000,-0.100000)"
fill="#000000" stroke="none">
<path d="M23 3898 c4 -496 7 -1576 7 -2400 l0 -1498 300 0 300 0 0 2093 0
2094 590 6 c325 4 848 4 1164 0 l574 -6 7 -148 c4 -81 4 -217 0 -302 l-7 -154
-856 -6 c-470 -4 -856 -8 -857 -10 -4 -5 14 -3539 18 -3543 2 -2 792 -7 1755
-11 l1752 -6 0 2391 0 2392 -142 0 c-79 0 -214 -3 -301 -7 l-157 -6 6 -1221
c4 -672 3 -1611 -1 -2087 l-7 -866 -575 -6 c-317 -4 -838 -4 -1159 0 l-584 6
0 304 0 303 428 0 c235 0 619 3 855 7 l427 6 0 287 0 287 -427 6 c-236 4 -620
7 -855 7 l-428 0 0 583 0 584 281 6 c155 4 404 4 554 0 l272 -6 6 -126 c4 -69
7 -201 7 -293 l0 -166 97 -7 c111 -9 470 -1 481 9 4 4 8 544 10 1200 l3 1193
-47 7 c-26 3 -823 6 -1772 6 l-1725 0 6 -902z"/>
</g>
</svg>
